# xmcd
#
# Track frame offsets:
# 150
# 12259
# 25656
# 38846
# 57452
# 68326
# 85264
# 96987
# 112230
# 126001
# 144014
# 157022
#
# Disc length: 2344 seconds
#
#
# Revision: 0
# Processed by: cddbd v1.5.1PL0 Copyright (c) Steve Scherf et al.
# Submitted via: FreeRIP 2.942 
#
DISCID=9709260c
DTITLE=Gene Watson - Greatest Hits
DYEAR=1990
DGENRE=Country
TTITLE0=Got No Reason Now For Goin' Home
TTITLE1=I Don't Need A Thing At All
TTITLE2=One Sided Conversations
TTITLE3=Farewell Party
TTITLE4=Pick The Wildwood Flower
TTITLE5=Should I Come Home Or Should I Go Crazy
TTITLE6=Nothing Sure Looked Good On You
TTITLE7=Love In The Hot Afternoon
TTITLE8=Where Love Begins
TTITLE9=Paper Rosie
TTITLE10=You Could Know As Much About A Stranger
TTITLE11=The Old Man And His Horn
EXTD=Curb Records
EXTT0=
EXTT1=
EXTT2=
EXTT3=
EXTT4=
EXTT5=
EXTT6=
EXTT7=
EXTT8=
EXTT9=
EXTT10=
EXTT11=
PLAYORDER=
